<?xml version="1.0" standalone="no"?>
<!DOCTYPE svg PUBLIC "-//W3C//DTD SVG 20010904//EN"
 "http://www.w3.org/TR/2001/REC-SVG-20010904/DTD/svg10.dtd">
<svg version="1.0" xmlns="http://www.w3.org/2000/svg"
 width="500.000000pt" height="500.000000pt" viewBox="0 0 500.000000 500.000000"
 preserveAspectRatio="xMidYMid meet">
<metadata>
Created by potrace 1.14, written by Peter Selinger 2001-2017
</metadata>
<g transform="translate(0.000000,500.000000) scale(0.100000,-0.100000)"
fill="#000000" stroke="none">
<path d="M2262 4321 c2 -7 7 -12 11 -12 12 1 9 15 -3 20 -7 2 -11 -2 -8 -8z"/>
<path d="M2365 4259 c-10 -15 3 -25 16 -12 7 7 7 13 1 17 -6 3 -14 1 -17 -5z"/>
<path d="M2527 4253 c-4 -3 -7 -11 -7 -17 0 -6 5 -5 12 2 6 6 9 14 7 17 -3 3
-9 2 -12 -2z"/>
<path d="M3210 4128 c36 -25 99 -62 140 -83 41 -22 77 -42 80 -45 3 -3 30 -18
60 -34 30 -16 80 -43 110 -59 74 -40 77 -42 135 -69 72 -32 297 -181 346 -228
23 -22 44 -38 47 -36 4 5 -121 179 -160 221 -9 11 -43 52 -74 90 -75 94 -123
151 -176 206 l-43 46 -130 -2 c-117 -2 -305 13 -374 30 -17 4 -3 -10 39 -37z"/>
<path d="M2417 4144 c-1 -1 -40 -4 -87 -8 -47 -4 -111 -13 -142 -20 -32 -7
-60 -11 -63 -8 -3 3 -5 -2 -5 -12 0 -9 4 -15 9 -11 5 3 12 1 16 -5 9 -14 -43
-33 -85 -32 -19 1 -49 0 -67 -3 -30 -5 -31 -7 -18 -32 14 -27 11 -49 -9 -56
-21 -8 -43 17 -50 58 -7 33 -10 37 -19 24 -7 -9 -24 -19 -39 -22 -15 -4 -33
-13 -40 -20 -7 -8 -21 -13 -31 -11 -9 1 -28 -6 -41 -17 -13 -10 -31 -19 -39
-19 -9 0 -23 -7 -32 -16 -9 -9 -18 -14 -21 -11 -3 3 -30 -13 -59 -36 -30 -23
-80 -62 -112 -86 -32 -25 -78 -68 -102 -95 -24 -28 -60 -69 -80 -91 -64 -70
-161 -194 -161 -206 0 -6 -7 -8 -16 -5 -12 4 -14 1 -9 -13 4 -13 0 -23 -12
-30 -10 -6 -15 -11 -11 -11 4 0 -14 -39 -39 -87 -51 -98 -105 -223 -96 -223 3
0 1 -6 -5 -13 -6 -7 -14 -28 -17 -47 -15 -86 -27 -124 -43 -137 -9 -8 -11 -12
-4 -8 15 8 15 5 -3 -39 -8 -20 -13 -37 -10 -37 3 -1 15 -2 26 -3 29 -1 42 -38
23 -65 -18 -26 -40 -27 -53 -4 -5 10 -12 16 -14 13 -10 -10 -30 -206 -29 -279
2 -108 27 -270 62 -391 62 -216 74 -249 155 -411 l22 -46 -28 -10 c-35 -14
-45 -36 -31 -69 19 -41 73 -27 75 20 2 23 3 24 14 10 10 -13 9 -23 -4 -48 -9
-17 -23 -36 -32 -43 -11 -8 -13 -15 -5 -22 7 -8 16 -5 31 8 21 20 21 20 26 0
3 -12 12 -19 22 -17 11 2 29 -18 56 -62 33 -53 45 -65 67 -66 15 0 35 8 45 18
23 23 34 23 42 -1 6 -20 70 -119 103 -160 l20 -25 56 43 c37 29 61 41 73 36
10 -3 47 -42 83 -86 78 -96 89 -109 98 -109 4 0 36 29 71 65 36 36 70 65 76
65 7 0 23 -14 36 -31 59 -78 64 -81 91 -68 30 13 28 15 127 -99 35 -39 71 -72
80 -72 10 0 26 18 39 43 11 23 32 62 46 87 32 59 160 332 231 495 86 198 226
594 265 753 14 55 38 85 67 79 19 -4 24 -1 20 12 -31 95 -36 133 -32 226 2 55
6 114 10 130 3 17 8 41 10 55 13 63 16 79 26 140 5 36 19 99 29 140 10 41 17
76 15 78 -1 2 -44 -52 -94 -120 -97 -130 -102 -137 -168 -211 -43 -50 -110
-107 -124 -107 -18 0 -39 63 -40 118 -1 82 33 204 84 301 35 66 175 277 226
341 70 87 69 85 46 73 -11 -6 -42 -21 -70 -33 -65 -29 -247 -120 -260 -130 -5
-4 -50 -29 -100 -55 -49 -27 -103 -56 -120 -66 -16 -10 -50 -29 -75 -42 -25
-14 -85 -49 -134 -78 -87 -53 -89 -55 -117 -124 -16 -38 -36 -83 -44 -100 -29
-63 -214 -533 -233 -595 -11 -36 -28 -83 -37 -105 -10 -22 -17 -40 -16 -40 1
0 0 -7 -3 -15 -3 -8 -12 -33 -19 -55 -8 -22 -18 -39 -23 -37 -12 4 -11 10 47
180 27 81 66 197 85 257 41 124 105 305 159 444 37 96 39 117 7 88 -24 -22
-154 -81 -220 -101 -87 -25 -82 5 26 150 59 79 173 194 192 194 5 0 10 3 10 8
0 4 26 25 56 47 49 35 62 53 104 135 66 132 87 169 122 213 16 21 27 41 24 44
-3 4 -70 5 -147 4 -117 -2 -141 0 -136 11 3 10 -5 15 -32 16 -109 6 -252 40
-267 63 -6 10 -34 -16 -99 -96 -82 -101 -194 -284 -286 -470 -55 -112 -106
-206 -114 -209 -8 -3 -22 -3 -31 1 -39 15 5 125 148 373 84 144 120 198 231
344 72 94 103 126 123 126 22 0 45 -26 38 -44 -5 -12 5 -11 53 8 73 28 186 57
323 82 14 2 36 7 50 9 63 13 77 15 100 20 14 2 45 6 70 10 25 3 77 10 115 15
131 17 443 35 560 32 33 -1 37 1 21 10 -18 10 -143 19 -281 21 -65 0 -189 -9
-253 -19 -82 -13 -118 -20 -207 -39 -38 -9 -81 -18 -94 -21 -13 -3 -32 -9 -42
-14 -22 -13 -69 -13 -69 -1 0 10 5 13 131 57 104 36 269 80 334 89 22 4 47 8
55 10 34 10 112 16 253 20 82 2 151 6 153 8 6 5 -244 45 -326 53 -66 6 -229
12 -233 8z m-92 -79 c0 -22 -31 -33 -47 -17 -17 17 -1 44 24 40 15 -2 23 -10
23 -23z m-255 -47 c0 -10 -38 -20 -50 -13 -19 12 -10 22 20 21 16 -1 30 -4 30
-8z m-190 -29 c0 -5 -4 -8 -9 -4 -5 3 -12 1 -16 -5 -7 -12 -25 -4 -25 11 0 5
11 9 25 9 14 0 25 -5 25 -11z m-705 -1029 c11 -17 -27 -118 -46 -123 -24 -6
-29 0 -29 37 0 57 54 119 75 86z m-51 -160 c-2 -33 -26 -69 -46 -70 -4 0 -13
7 -22 15 -12 12 -13 22 -4 46 9 26 15 30 42 27 20 -2 31 -8 30 -18z m-40 -85
c20 -15 19 -20 -12 -128 -11 -38 -21 -56 -29 -53 -7 3 -13 0 -14 -7 -2 -35
-11 -73 -19 -81 -13 -13 -41 13 -36 33 3 9 7 27 10 41 26 132 53 211 74 210 4
0 15 -7 26 -15z m936 -79 c0 -35 -28 -96 -44 -96 -21 0 -24 29 -9 75 20 58 53
71 53 21z m-1073 -62 c18 -48 -33 -88 -68 -53 -25 25 -24 54 3 73 23 16 54 7
65 -20z m1325 -264 c-5 -40 -36 -95 -52 -95 -19 0 -16 54 6 96 19 37 51 36 46
-1z"/>
<path d="M1800 4126 c0 -21 21 -31 30 -15 5 7 6 17 4 21 -9 14 -34 9 -34 -6z"/>
<path d="M1665 4043 c-26 -25 -17 -63 17 -76 12 -4 25 1 38 15 24 26 24 29 6
53 -17 24 -42 27 -61 8z"/>
<path d="M1532 4028 c-16 -16 -15 -53 2 -67 25 -21 64 -23 74 -4 14 24 -5 70
-31 77 -30 8 -31 8 -45 -6z"/>
<path d="M1370 3929 c0 -5 5 -7 10 -4 6 3 10 8 10 11 0 2 -4 4 -10 4 -5 0 -10
-5 -10 -11z"/>
<path d="M1565 3900 c-3 -5 1 -10 10 -10 9 0 13 5 10 10 -3 6 -8 10 -10 10 -2
0 -7 -4 -10 -10z"/>
<path d="M1224 3790 c-31 -12 -47 -65 -31 -99 17 -35 45 -38 73 -7 13 14 24
28 24 32 0 4 8 13 18 20 16 12 16 14 -3 34 -25 24 -52 31 -81 20z"/>
<path d="M812 3768 c6 -18 28 -21 28 -4 0 9 -7 16 -16 16 -9 0 -14 -5 -12 -12z"/>
<path d="M2780 3723 c-41 -6 -106 -15 -145 -18 -38 -4 -81 -8 -95 -10 -14 -1
-61 -5 -105 -9 -72 -6 -83 -10 -105 -36 -27 -31 -145 -239 -139 -245 2 -2 31
13 64 32 108 64 373 194 435 213 32 11 190 76 195 82 7 6 -26 4 -105 -9z"/>
<path d="M1112 3561 c-14 -8 -6 -41 9 -41 14 0 23 30 13 40 -5 5 -15 6 -22 1z"/>
<path d="M824 3536 c-6 -17 2 -36 17 -36 12 0 12 37 -1 45 -6 3 -13 -1 -16 -9z"/>
<path d="M880 3530 c0 -6 7 -10 15 -10 8 0 15 2 15 4 0 2 -7 6 -15 10 -8 3
-15 1 -15 -4z"/>
<path d="M966 3495 c-3 -9 1 -18 10 -22 19 -7 28 2 21 22 -8 19 -23 19 -31 0z"/>
<path d="M4054 3416 c25 -31 54 -69 63 -84 10 -15 20 -29 24 -32 4 -3 30 -45
59 -95 28 -49 49 -79 45 -65 -13 46 -79 162 -110 196 -5 6 -25 31 -44 55 -19
25 -46 53 -59 63 -14 11 -5 -5 22 -38z"/>
<path d="M1000 3445 c-16 -20 4 -27 34 -14 14 7 26 15 26 19 0 13 -49 8 -60
-5z"/>
<path d="M3619 3405 c0 -5 -2 -23 -4 -40 -1 -16 -5 -86 -9 -154 -4 -68 -11
-156 -16 -195 -5 -39 -12 -100 -15 -136 -3 -36 -7 -76 -10 -90 -2 -14 -7 -45
-10 -70 -5 -41 -10 -77 -20 -150 -11 -79 -18 -137 -17 -152 1 -27 -37 -23 -42
5 -2 12 -9 76 -15 142 -6 66 -13 129 -15 140 -2 11 -7 47 -10 80 -4 33 -11 83
-16 110 -13 70 -18 106 -19 138 -1 37 -21 35 -21 -3 0 -18 -9 -39 -22 -52 -12
-12 -23 -32 -24 -43 -4 -59 -49 -292 -64 -330 -5 -14 -8 -25 -5 -25 2 0 -2
-18 -10 -40 -8 -22 -12 -40 -10 -40 3 0 1 -10 -4 -23 -5 -13 -12 -39 -15 -58
-8 -45 -33 -138 -91 -334 -25 -88 -48 -167 -50 -175 -8 -37 -36 -88 -50 -93
-21 -9 -45 2 -46 22 -3 35 5 70 51 226 82 276 143 501 160 588 8 42 -6 52 -16
11 -11 -44 -121 -255 -171 -329 -30 -43 -55 -70 -65 -69 -11 1 -19 -8 -23 -25
-3 -14 -26 -82 -51 -151 -25 -69 -47 -132 -49 -140 -12 -48 -137 -371 -182
-469 -14 -29 -26 -61 -28 -71 -2 -10 -14 -42 -28 -71 -13 -30 -35 -79 -48
-109 -13 -30 -51 -111 -85 -180 l-61 -125 36 -46 c55 -71 66 -75 111 -44 21
15 83 42 137 61 90 31 312 136 337 159 6 5 56 40 111 77 55 36 109 75 120 85
11 10 65 56 120 103 55 46 135 118 178 160 82 78 265 295 309 365 32 52 50 66
67 55 19 -11 9 -57 -34 -146 -19 -40 -35 -75 -35 -78 0 -10 -54 -90 -115 -170
-114 -152 -286 -308 -465 -422 -69 -44 -142 -88 -162 -99 -53 -27 -39 -31 19
-5 199 89 344 184 467 306 86 84 225 257 266 328 11 20 29 53 41 73 82 145
152 321 165 418 3 27 8 61 10 75 8 61 4 203 -10 300 -20 138 -69 277 -170 480
-111 221 -104 212 -133 193 -21 -14 -25 -14 -43 2 -24 21 -26 63 -5 71 8 4 15
9 15 13 0 11 -110 176 -111 166z m249 -471 c21 -76 33 -127 38 -151 9 -48 13
-71 34 -168 32 -151 44 -284 29 -322 -9 -25 -43 -31 -55 -11 -5 7 -9 49 -10
93 -3 97 -13 232 -19 266 -12 57 -15 76 -21 114 -3 22 -13 81 -23 130 -10 50
-16 94 -14 98 11 19 29 -3 41 -49z m-768 -1545 c0 -11 -6 -33 -14 -47 -8 -15
-31 -67 -52 -115 -36 -84 -74 -132 -98 -124 -25 8 -15 44 38 131 31 51 56 96
56 100 0 12 52 76 61 76 5 0 9 -9 9 -21z"/>
<path d="M982 3388 c-19 -19 -14 -37 12 -49 17 -8 22 -17 18 -28 -5 -14 -4
-14 11 -2 9 7 17 19 17 27 0 7 7 17 17 22 10 6 14 16 9 27 -4 13 -10 14 -19 7
-8 -7 -18 -7 -27 -2 -20 13 -24 12 -38 -2z"/>
<path d="M3911 3315 c2 -6 23 -46 45 -90 23 -44 53 -110 68 -146 28 -70 68
-237 60 -250 -11 -19 18 -17 37 2 18 18 20 28 15 72 -9 67 -77 212 -145 312
-51 74 -90 123 -80 100z"/>
<path d="M786 3144 c-8 -22 11 -54 29 -48 17 7 20 20 5 29 -5 3 -7 12 -3 20 3
9 -1 15 -10 15 -8 0 -18 -7 -21 -16z"/>
<path d="M806 2875 c-3 -8 2 -22 11 -31 15 -15 18 -15 30 2 7 10 13 24 13 31
0 18 -47 16 -54 -2z"/>
<path d="M762 2698 c-31 -31 1 -79 37 -56 27 16 34 37 20 54 -14 17 -41 18
-57 2z"/>
<path d="M810 1775 c0 -8 7 -15 15 -15 8 0 15 7 15 15 0 8 -7 15 -15 15 -8 0
-15 -7 -15 -15z"/>
<path d="M915 1600 c-3 -5 -1 -10 4 -10 6 0 11 5 11 10 0 6 -2 10 -4 10 -3 0
-8 -4 -11 -10z"/>
</g>
</svg>
